<?xml version="1.0" standalone="no"?>
<!DOCTYPE svg PUBLIC "-//W3C//DTD SVG 20010904//EN"
 "http://www.w3.org/TR/2001/REC-SVG-20010904/DTD/svg10.dtd">
<svg version="1.0" xmlns="http://www.w3.org/2000/svg"
 width="184.000000pt" height="184.000000pt" viewBox="0 0 184.000000 184.000000"
 preserveAspectRatio="xMidYMid meet">
<metadata>
Created by potrace 1.14, written by Peter Selinger 2001-2017
</metadata>
<g transform="translate(0.000000,184.000000) scale(0.100000,-0.100000)"
fill="#000000" stroke="none">
<path d="M1130 1781 c-50 -16 -89 -41 -124 -83 -109 -127 -68 -324 84 -404 52
-28 172 -26 226 3 191 101 175 398 -25 473 -52 20 -116 24 -161 11z"/>
<path d="M1641 1314 c-70 -71 -118 -93 -218 -100 -43 -3 -87 -7 -99 -9 -69
-14 -94 -110 -41 -162 26 -26 33 -28 110 -28 183 1 300 49 393 162 62 77 60
144 -6 178 -52 27 -77 20 -139 -41z"/>
<path d="M724 1207 c-102 -33 -194 -114 -244 -215 -19 -36 -21 -52 -14 -81 11
-45 60 -80 105 -75 40 5 52 15 99 84 36 53 77 90 104 94 6 1 16 4 21 7 6 3 39
6 75 8 72 3 102 17 124 60 25 48 0 113 -52 132 -39 15 -152 8 -218 -14z"/>
<path d="M1081 1173 c-50 -24 -54 -39 -66 -205 -3 -46 -8 -103 -10 -128 -3
-25 -7 -70 -10 -100 -3 -30 -10 -69 -16 -86 -5 -17 -9 -44 -8 -60 4 -61 -98
-191 -176 -225 -44 -19 -94 -28 -170 -30 -91 -3 -135 -39 -135 -110 0 -42 47
-89 92 -90 194 -5 318 35 422 135 57 56 119 138 130 174 10 29 25 28 74 -7 73
-54 141 -161 186 -297 19 -60 49 -91 91 -97 54 -8 115 40 115 90 0 36 -39 141
-88 238 -56 110 -163 222 -259 273 l-63 33 5 42 c6 52 12 124 21 247 3 52 8
98 10 101 2 3 -1 22 -7 41 -16 60 -81 88 -138 61z"/>
<path d="M315 864 c-16 -8 -37 -27 -46 -42 -9 -15 -71 -118 -139 -230 -161
-264 -161 -267 -13 -357 114 -69 155 -61 216 43 19 31 78 129 132 217 54 88
101 174 105 192 12 52 -13 87 -99 137 -92 53 -117 59 -156 40z"/>
<path d="M45 175 c-32 -31 -32 -69 0 -100 13 -14 36 -25 50 -25 14 0 37 11 50
25 32 31 32 69 0 100 -31 32 -69 32 -100 0z"/>
</g>
</svg>
